<?xml version="1.0" encoding="UTF-8"?>
<svg version="1.1" xmlns="http://www.w3.org/2000/svg" width="300" height="300">
<path d="M0 0 C17.7101288 17.97167079 29.18998253 40.58430936 36.25 64.5625 C36.49645264 65.38838623 36.74290527 66.21427246 36.99682617 67.06518555 C40.46173564 79.33549233 41.36628408 91.60680153 41.3125 104.3125 C41.31100952 104.98909668 41.30951904 105.66569336 41.3079834 106.36279297 C41.26637829 116.89695712 40.5648114 126.76276993 38 137 C37.70996094 138.26070312 37.41992188 139.52140625 37.12109375 140.8203125 C32.22610372 160.76893297 23.16122748 178.54784297 11 195 C10.06414062 196.27423828 10.06414062 196.27423828 9.109375 197.57421875 C-14.04718863 227.78477761 -49.34673017 247.64532106 -86.8515625 253.34375 C-104.88059962 255.57266386 -124.34369266 255.43039505 -142 251 C-143.14275391 250.72591309 -143.14275391 250.72591309 -144.30859375 250.44628906 C-163.61710003 245.68175084 -182.28320423 237.25185377 -198 225 C-199.31097656 224.00033203 -199.31097656 224.00033203 -200.6484375 222.98046875 C-203.14324598 221.03451813 -205.57981869 219.03783996 -208 217 C-208.83273438 216.30261719 -209.66546875 215.60523438 -210.5234375 214.88671875 C-216.77896003 209.46847385 -221.96907596 203.55849553 -227 197 C-227.66773438 196.14792969 -228.33546875 195.29585937 -229.0234375 194.41796875 C-252.85226822 163.00723734 -262.53319516 123.13501518 -257.7890625 84.16796875 C-252.26565122 45.18741418 -231.3655162 8.87090315 -200.25585938 -15.35839844 C-138.14059971 -61.40455894 -54.59232568 -53.09059504 0 0 Z M-178 -6 C-179.24910156 -5.08347656 -179.24910156 -5.08347656 -180.5234375 -4.1484375 C-211.41093095 19.34205104 -230.84487224 54.78337315 -237.25 92.75 C-241.97641522 128.44568832 -235.22765582 164.36973042 -214 194 C-211.07874878 197.73583088 -208.07753918 201.39209126 -205 205 C-204.67 204.34 -204.34 203.68 -204 203 C-204.97693574 200.7366644 -206.01269343 198.57072206 -207.125 196.375 C-222.07855952 165.54168647 -224.13266506 127.25320101 -217 94 C-216.81195801 93.10909668 -216.62391602 92.21819336 -216.43017578 91.30029297 C-209.77459517 60.89217887 -196.64569069 32.18549242 -177 8 C-176.21496094 7.01773438 -175.42992187 6.03546875 -174.62109375 5.0234375 C-169.84134881 -0.89407852 -164.93095044 -6.20921464 -159 -11 C-157.43701662 -12.29749578 -155.87415134 -13.59513852 -154.31396484 -14.89599609 C-152.75882529 -16.19062292 -151.19790485 -17.47829613 -149.63671875 -18.765625 C-147.65228283 -20.4472507 -145.78967013 -22.11870854 -144 -24 C-155.00316509 -24 -169.67107705 -12.3556795 -178 -6 Z M-62 -23 C-61.50371094 -22.13761719 -61.00742188 -21.27523438 -60.49609375 -20.38671875 C-30.08267238 33.70168565 -34.47411894 104.61459457 -50.1875 162.5625 C-55.02713002 179.6299832 -61.19087591 196.57391042 -70.69921875 211.62109375 C-71.12847656 212.40613281 -71.55773437 213.19117188 -72 214 C-71.67 214.66 -71.34 215.32 -71 216 C-44.13243516 191.27232971 -29.36606129 156.38716279 -21.75 121.25 C-21.59877686 120.55503418 -21.44755371 119.86006836 -21.29174805 119.14404297 C-18.60157404 105.90127786 -17.61610368 92.73416807 -17.6875 79.25 C-17.68965515 78.51020905 -17.6918103 77.77041809 -17.69403076 77.00820923 C-17.84761897 44.00849473 -25.61394572 9.8773938 -49.1875 -14.5625 C-54.88707078 -20.34499962 -54.88707078 -20.34499962 -62 -23 Z M-134 -4 C-146.4826834 13.15794141 -151.71835059 35.37313606 -155 56 C-155.11037598 56.68916504 -155.22075195 57.37833008 -155.33447266 58.08837891 C-162.68274233 105.3371743 -161.32839505 170.62949938 -132 211 C-125.19767635 219.43832554 -118.9759605 226.07969687 -107.75 227.375 C-98.34859278 226.43485928 -91.17787625 222.08855939 -85.26171875 214.8828125 C-73.75827238 199.32382739 -68.06911893 181.23424943 -64.25 162.5 C-64.05132324 161.52893311 -63.85264648 160.55786621 -63.64794922 159.55737305 C-60.40921158 142.71288451 -59.62488269 126.05861744 -59.6875 108.9375 C-59.68932281 107.90230225 -59.69114563 106.86710449 -59.69302368 105.80053711 C-59.73882468 90.3433708 -60.17312079 75.23756844 -63 60 C-63.17160645 59.03884277 -63.34321289 58.07768555 -63.52001953 57.08740234 C-68.06701458 32.27194324 -75.9914313 0.33010648 -98 -15 C-112.50000979 -23.36539026 -124.58740376 -15.44735655 -134 -4 Z M-147 -7 C-182.89828937 26.50507008 -197.7809396 77.99650444 -200.18359375 125.640625 C-200.84745129 158.59919941 -193.30334032 196.27384848 -170 221 C-163.32302789 227.73378174 -163.32302789 227.73378174 -155 232 C-155.49628906 231.13761719 -155.99257812 230.27523437 -156.50390625 229.38671875 C-165.97276964 212.54457934 -171.47567578 194.9519294 -175 176 C-175.16516113 175.14035645 -175.33032227 174.28071289 -175.50048828 173.39501953 C-180.8571125 144.1413148 -180.01951584 111.25520742 -175 82 C-174.82839355 80.98067383 -174.65678711 79.96134766 -174.47998047 78.91113281 C-169.73579159 51.53135463 -162.47384753 24.49621252 -148.70556641 0.20117188 C-147.74993041 -1.50349873 -146.86714825 -3.24865881 -146 -5 C-146.495 -5.99 -146.495 -5.99 -147 -7 Z M-12 5 C-10.42547404 9.8985252 -8.73185564 14.70385015 -6.84521484 19.49194336 C10.65472193 64.38806937 4.30933194 114.780554 -14.69873047 158.11669922 C-24.42107517 179.65908025 -37.13594688 198.42036534 -54 215 C-54.89589844 215.88300781 -55.79179687 216.76601563 -56.71484375 217.67578125 C-62.95530465 223.53190258 -69.8864492 228.28364892 -77 233 C-73.39741306 234.20086231 -72.8539819 233.764089 -69.53515625 232.19140625 C-68.65835205 231.77810059 -67.78154785 231.36479492 -66.87817383 230.93896484 C-65.94900146 230.48473145 -65.0198291 230.03049805 -64.0625 229.5625 C-63.11334717 229.10311035 -62.16419434 228.6437207 -61.1862793 228.17041016 C-50.11133323 222.71192901 -40.44484113 215.95355042 -31 208 C-29.824375 207.01 -29.824375 207.01 -28.625 206 C-23.61838898 201.66995804 -19.17657611 197.13097191 -15 192 C-14.25105469 191.10023438 -13.50210938 190.20046875 -12.73046875 189.2734375 C3.43296082 169.16460387 13.78752769 146.18153737 19 121 C19.24621094 119.85917969 19.49242187 118.71835938 19.74609375 117.54296875 C25.91782264 83.02385064 17.97304889 46.65665719 -1.1953125 17.55078125 C-4.26298568 13.21487089 -7.46857148 8.97070378 -11 5 C-11.33 5 -11.66 5 -12 5 Z " fill="#FFFFFF" transform="translate(259,46)"/>
</svg>
