<?xml version="1.0" encoding="UTF-8"?>
<svg version="1.1" xmlns="http://www.w3.org/2000/svg" width="800" height="800">
<path d="M0 0 C11.04073195 9.53362461 21.22581246 20.0633342 31.53914857 30.36444676 C34.00092866 32.82226328 36.4655079 35.27727074 38.92964172 37.73272705 C44.85126281 43.63477011 50.76820539 49.5414923 56.6845082 55.44886574 C58.91917497 57.68001174 61.15415333 59.91084546 63.38914655 62.14166443 C73.26337729 71.9974598 83.13626594 81.85459732 93.0051384 91.71575832 C95.40917765 94.11788827 97.81322247 96.52001264 100.21728516 98.92211914 C100.81466764 99.51901789 101.41205013 100.11591663 102.02753511 100.73090322 C111.71680235 110.41185996 121.4145679 120.08425687 131.11588427 129.75313758 C141.10751897 139.71164071 151.09154992 149.67771631 161.06822801 159.65120369 C166.65750861 165.23832681 172.24998475 170.82216416 177.85100555 176.39752007 C182.61645 181.14117542 187.37490748 185.89170545 192.12462679 190.65110808 C194.54304208 193.07404192 196.96445942 195.49374236 199.39489937 197.90461922 C229.17343485 227.4825171 229.17343485 227.4825171 229.5 250.0625 C229.31306774 266.47652441 221.93461771 278.70291232 210.48934078 290.0196104 C209.64212563 290.87323851 208.79491047 291.72686662 207.92202213 292.60636225 C205.58090196 294.96116683 203.2312328 297.30678358 200.87741697 299.64885597 C198.31405285 302.20384355 195.76233551 304.77042098 193.20907742 307.33550054 C188.73662692 311.82544671 184.25680562 316.30793067 179.77201843 320.78555298 C173.10283712 327.44410779 166.445121 334.1140395 159.78954612 340.78619115 C147.21008348 353.396123 134.61711737 365.99251116 122.01994418 378.58474704 C112.29203032 388.30899459 102.56771678 398.03682929 92.84593391 407.76720619 C91.44884998 409.16549493 90.05176485 410.56378246 88.65467851 411.9620688 C86.54936761 414.06919423 84.44405811 416.17632106 82.33875637 418.28345564 C62.76642019 437.8726493 43.18999477 457.45774877 23.60505581 477.03434277 C22.86684962 477.77223621 22.12864342 478.51012965 21.36806734 479.2703835 C17.62659316 483.01024613 13.88507899 486.75006876 10.14354884 490.4898754 C9.40047861 491.23260345 8.65740838 491.9753315 7.89182087 492.74056647 C6.38915214 494.24254189 4.88648154 495.74451543 3.38380906 497.2464871 C-19.99845413 520.61803555 -43.36739084 544.00283503 -66.72583008 567.39819336 C-92.97377903 593.68757985 -119.23169919 619.96694841 -145.50439399 646.2316063 C-148.30603339 649.03245502 -151.107639 651.83333753 -153.90922356 654.6342411 C-154.5990433 655.32387938 -155.28886303 656.01351766 -155.9995864 656.72405406 C-166.40990851 667.13204487 -176.81239585 677.54782324 -187.21093941 687.9675808 C-199.03781388 699.81855867 -210.87512849 711.65899245 -222.72645689 723.48551794 C-229.35643035 730.10223606 -235.97802389 736.72708551 -242.5877715 743.36400958 C-247.00694191 747.79967946 -251.43697855 752.22429706 -255.87590663 756.64019418 C-258.40262197 759.15440685 -260.92446324 761.67300883 -263.43317885 764.20519307 C-288.99099105 789.98597407 -288.99099105 789.98597407 -308.49414062 790.38037109 C-338.17104848 790.30971179 -355.37199828 767.7783877 -374.8918457 748.26928711 C-376.8704532 746.29478869 -378.84977235 744.32100413 -380.82902527 742.34715271 C-386.17019476 737.0194468 -391.50769235 731.6880728 -396.84434533 726.35584331 C-400.18325653 723.01971108 -403.52289744 719.68430999 -406.86266136 716.34903145 C-416.13214578 707.09171664 -425.40069913 697.83347188 -434.66579914 688.57176876 C-435.55153175 687.6863655 -435.55153175 687.6863655 -436.45515795 686.78307531 C-437.04692846 686.19152307 -437.63869898 685.59997083 -438.24840194 684.99049276 C-439.44725664 683.79208151 -440.64611289 682.59367181 -441.8449707 681.39526367 C-442.43962488 680.80083092 -443.03427906 680.20639817 -443.64695307 679.59395231 C-453.29625 669.94860895 -462.95229203 660.31004833 -472.61123166 650.67436223 C-482.55692253 640.75242039 -492.49694354 630.82482757 -502.43134946 620.89158636 C-507.99787435 615.32597544 -513.56675929 609.76277384 -519.14193153 604.2058239 C-523.88429656 599.47890688 -528.62142791 594.74682076 -533.35195837 590.00805896 C-535.76136986 587.5947596 -538.17307019 585.18387895 -540.59148026 582.77959442 C-543.22026716 580.16356967 -545.83953691 577.53835674 -548.45674133 574.91075134 C-549.2105426 574.16500648 -549.96434387 573.41926162 -550.7409876 572.65091842 C-557.653716 565.67417015 -564.37286602 557.88543702 -567.9375 548.625 C-568.31777344 547.66851563 -568.69804688 546.71203125 -569.08984375 545.7265625 C-572.99926 534.01509237 -572.18760202 520.16829607 -567 509 C-561.59979693 498.55768575 -553.37677035 490.91366126 -545.0625 482.8125 C-543.69633315 481.46644054 -542.33109114 480.11944175 -540.96679688 478.77148438 C-537.65508547 475.50340452 -534.3311486 472.24826042 -531 469 C-527.19241731 470.57187292 -524.81567885 472.96095284 -521.94360352 475.87695312 C-521.45361877 476.37146469 -520.96363403 476.86597626 -520.45880127 477.37547302 C-519.39863177 478.44657584 -518.3407489 479.51994576 -517.28491402 480.59532166 C-515.61226405 482.29819288 -513.93297369 483.99425006 -512.25169373 485.68859863 C-507.47389566 490.50610253 -502.70890827 495.33620708 -497.94702148 500.16943359 C-495.03098679 503.12822002 -492.10764807 506.07963189 -489.17991447 509.02684021 C-488.06744559 510.14986393 -486.95790077 511.27579219 -485.8513813 512.40467834 C-484.30296705 513.98434428 -482.74549714 515.55454049 -481.18579102 517.12304688 C-480.30294937 518.01858276 -479.42010773 518.91411865 -478.51051331 519.83679199 C-474.839389 523.00005166 -472.33892715 524.04781883 -467.5 523.875 C-463.68323625 522.92080906 -461.8007177 521.71834365 -459 519 C-457.42787849 515.85575698 -457.4820625 512.42208708 -458 509 C-460.14193604 504.89463847 -462.84264981 501.91445745 -466.11401367 498.65893555 C-466.62163742 498.15101974 -467.12926117 497.64310394 -467.65226746 497.11979675 C-469.31946793 495.45398173 -470.99362389 493.79535 -472.66796875 492.13671875 C-473.82997049 490.97844992 -474.9915294 489.81973668 -476.15266418 488.66059875 C-479.20111049 485.61976693 -482.25551627 482.58499088 -485.31121826 479.55145264 C-488.43181597 476.45136047 -491.54671787 473.34555684 -494.66210938 470.24023438 C-500.76919125 464.15456386 -506.88258316 458.07528146 -513 452 C-508.88670129 447.09526099 -504.61457539 442.4780472 -500.0703125 437.97265625 C-499.11751907 437.02198524 -499.11751907 437.02198524 -498.14547729 436.05210876 C-496.14101284 434.05318594 -494.13307786 432.05779216 -492.125 430.0625 C-490.75497611 428.69749867 -489.38518226 427.3322664 -488.015625 425.96679688 C-484.67973457 422.64185789 -481.34072964 419.32007647 -478 416 C-472.63337348 420.47653863 -467.65885967 425.21429688 -462.74145508 430.17675781 C-461.94706528 430.97421417 -461.15267548 431.77167053 -460.33421326 432.59329224 C-458.62041209 434.31421346 -456.9077386 436.03625828 -455.19608498 437.75931549 C-452.48777 440.48509102 -449.77586466 443.20724653 -447.06291199 445.92840576 C-439.3538277 453.66189061 -431.65042967 461.40102099 -423.95141602 469.14453125 C-419.23401024 473.88911414 -414.51134587 478.62841096 -409.78586388 483.36495209 C-407.98700854 485.1700215 -406.1900537 486.97698693 -404.39502907 488.78586578 C-401.89132592 491.30873305 -399.3815712 493.82542822 -396.87036133 496.34082031 C-396.12897919 497.09096405 -395.38759705 497.84110779 -394.62374878 498.61398315 C-393.93840561 499.29802216 -393.25306244 499.98206116 -392.54695129 500.68682861 C-391.955034 501.28188831 -391.3631167 501.87694801 -390.75326252 502.49003983 C-386.99274618 505.7287048 -383.95632847 506.34699984 -378.96484375 506.1796875 C-376.2035264 505.92716146 -374.34458991 505.51708759 -372 504 C-370.09385038 500.0061627 -369.4515565 496.38754798 -370 492 C-373.22331895 486.30845695 -377.72863437 482.0022522 -382.34863281 477.42431641 C-383.60771957 476.16479156 -383.60771957 476.16479156 -384.89224243 474.87982178 C-387.18172938 472.59148494 -389.47557575 470.30763166 -391.7714777 468.02573442 C-394.17471415 465.63504652 -396.57224397 463.23864925 -398.97039795 460.84286499 C-403.50658824 456.31287739 -408.04785009 451.78800989 -412.59097934 447.26498258 C-417.76543267 442.11292605 -422.93417136 436.95515249 -428.10244989 431.79690289 C-438.72864283 421.1915845 -449.36195197 410.59342767 -460 400 C-458.57380422 397.02848523 -457.18193693 394.93640987 -454.83544922 392.60839844 C-454.19493622 391.9680365 -453.55442322 391.32767456 -452.89450073 390.66790771 C-452.20486237 389.98859192 -451.515224 389.30927612 -450.8046875 388.609375 C-450.09724396 387.90476135 -449.38980042 387.20014771 -448.66091919 386.47418213 C-446.40360138 384.2280461 -444.13942367 381.98896991 -441.875 379.75 C-440.34199047 378.22702283 -438.80943285 376.70359061 -437.27734375 375.1796875 C-433.52345427 371.44783185 -429.76391086 367.72174649 -426 364 C-422.24109991 365.55964501 -419.90027952 367.88165863 -417.06713867 370.76928711 C-416.59012009 371.25243881 -416.1131015 371.73559052 -415.62162781 372.23338318 C-414.58931981 373.27996424 -413.55926907 374.32877557 -412.53124046 375.37956047 C-410.90041918 377.04526875 -409.26251528 378.70369903 -407.62239075 380.36024475 C-402.9612444 385.07019709 -398.31134564 389.79113412 -393.6706543 394.52124023 C-390.828194 397.41745297 -387.97591579 400.3036956 -385.11748695 403.18414497 C-384.03366884 404.2803309 -382.95365389 405.38029131 -381.87764549 406.48414421 C-380.36794015 408.03255688 -378.84605471 409.56799703 -377.32104492 411.10131836 C-376.46040939 411.97686874 -375.59977386 412.85241913 -374.71305847 413.75450134 C-371.19154631 416.66912737 -367.41499338 418.96708697 -362.70703125 419.03125 C-359.34463324 418.088392 -357.23350909 417.192645 -354.5 414.9375 C-352.36070246 410.74804233 -351.98854408 407.59208206 -353 403 C-354.18256146 401.11998568 -354.18256146 401.11998568 -355.84399414 399.41210938 C-356.48112335 398.71972168 -357.11825256 398.02733398 -357.77468872 397.31396484 C-362.18801384 392.72481848 -366.67007867 388.2088163 -371.18359375 383.71875 C-372.24998085 382.65423228 -373.31614419 381.58949038 -374.38209534 380.52453613 C-377.16305407 377.74736167 -379.94700444 374.97320575 -382.73162842 372.19970703 C-385.5826948 369.35894362 -388.43086669 366.51528128 -391.27929688 363.671875 C-396.85006518 358.1117717 -402.42400319 352.55485982 -408 347 C-403.88670129 342.09526099 -399.61457539 337.4780472 -395.0703125 332.97265625 C-394.11751907 332.02198524 -394.11751907 332.02198524 -393.14547729 331.05210876 C-391.14101284 329.05318594 -389.13307786 327.05779216 -387.125 325.0625 C-385.75497611 323.69749867 -384.38518226 322.3322664 -383.015625 320.96679688 C-379.67973457 317.64185789 -376.34072964 314.32007647 -373 311 C-367.29438097 315.70431478 -362.08912725 320.80298074 -356.89370346 326.06169701 C-355.39916863 327.57384733 -353.90092492 329.08223408 -352.40164185 330.5896759 C-348.14442921 334.87115598 -343.89304571 339.15839029 -339.64599609 343.44995117 C-337.03567111 346.08711571 -334.42044768 348.7193405 -331.80218887 351.34862709 C-330.81076545 352.34623427 -329.82124028 353.34573184 -328.8337059 354.34718895 C-327.45349934 355.7467004 -326.0664794 357.13948245 -324.67919922 358.53198242 C-323.89423065 359.32440842 -323.10926208 360.11683441 -322.30050659 360.93327332 C-318.80450234 364.07400993 -316.21214584 365.87012723 -311.5 366.375 C-306.67118965 365.85762746 -304.31245157 364.48744511 -301.125 360.875 C-299.43544988 356.55726081 -299.41398388 353.28851084 -301 349 C-304.53752269 344.3326154 -308.70191355 340.3661516 -312.91015625 336.30859375 C-314.12116189 335.11252426 -315.33040195 333.91466472 -316.53794861 332.71510315 C-319.7082571 329.57521958 -322.90184826 326.46011119 -326.10101318 323.34967041 C-329.36634517 320.16643658 -332.60891604 316.96019851 -335.85351562 313.75585938 C-342.21369214 307.48126852 -348.59872005 301.23263275 -355 295 C-353.65427113 292.00056095 -352.16462899 289.91923821 -349.83544922 287.60839844 C-349.19493622 286.9680365 -348.55442322 286.32767456 -347.89450073 285.66790771 C-346.86004318 284.64893402 -346.86004318 284.64893402 -345.8046875 283.609375 C-345.09724396 282.90476135 -344.38980042 282.20014771 -343.66091919 281.47418213 C-341.40360138 279.2280461 -339.13942367 276.98896991 -336.875 274.75 C-335.34199047 273.22702283 -333.80943285 271.70359061 -332.27734375 270.1796875 C-328.52345427 266.44783185 -324.76391086 262.72174649 -321 259 C-317.87670349 260.38676953 -315.76159811 261.9922458 -313.35693359 264.4092865 C-312.65042664 265.11448929 -311.94391968 265.81969208 -311.21600342 266.54626465 C-310.45120667 267.319823 -309.68640991 268.09338135 -308.8984375 268.89038086 C-308.08497864 269.70515396 -307.27151978 270.51992706 -306.43341064 271.35939026 C-303.74265219 274.05664537 -301.05893442 276.76079972 -298.375 279.46484375 C-296.50750734 281.33860624 -294.63949898 283.21185488 -292.77099609 285.08460999 C-288.352173 289.51480776 -283.93804826 293.94965293 -279.52595329 298.38655049 C-271.15905571 306.80040467 -262.78509507 315.20721017 -254.40704346 323.60995674 C-251.65487247 326.37236022 -248.90613586 329.13814776 -246.15771484 331.90428162 C-244.47244648 333.59637791 -242.7870683 335.28836483 -241.1015625 336.98022461 C-240.33676575 337.75175873 -239.57196899 338.52329285 -238.78399658 339.31820679 C-238.07748962 340.0262294 -237.37098267 340.73425201 -236.64306641 341.46372986 C-236.03250397 342.07781173 -235.42194153 342.6918936 -234.7928772 343.32458401 C-230.99543942 346.87323084 -228.32330321 348.79912063 -223 349 C-219.62283693 348.5671764 -216.86343176 347.88201362 -214 346 C-211.56790179 341.7607177 -211.72010017 338.06361937 -212.9375 333.4375 C-216.90853408 325.84798096 -224.13506068 319.72155642 -230.13842773 313.74804688 C-231.31038948 312.57586609 -231.31038948 312.57586609 -232.50602722 311.38000488 C-235.06285026 308.82387283 -237.62318606 306.27129097 -240.18359375 303.71875 C-241.96742768 301.93678315 -243.75103947 300.15459389 -245.53443909 298.37219238 C-249.73269178 294.17735442 -253.93316307 289.98474686 -258.13474089 285.79324007 C-262.9227812 281.01642468 -267.70794072 276.23672782 -272.49287498 271.45680141 C-282.32540875 261.63468576 -292.16150736 251.81614659 -302 242 C-300.57380422 239.02848523 -299.18193693 236.93640987 -296.83544922 234.60839844 C-295.87467972 233.64785553 -295.87467972 233.64785553 -294.89450073 232.66790771 C-294.20486237 231.98859192 -293.515224 231.30927612 -292.8046875 230.609375 C-292.09724396 229.90476135 -291.38980042 229.20014771 -290.66091919 228.47418213 C-288.40360138 226.2280461 -286.13942367 223.98896991 -283.875 221.75 C-282.34199047 220.22702283 -280.80943285 218.70359061 -279.27734375 217.1796875 C-275.52345427 213.44783185 -271.76391086 209.72174649 -268 206 C-264.14838308 207.57631733 -261.79043874 210.01693076 -258.9152832 212.98461914 C-258.42197006 213.49049057 -257.92865692 213.996362 -257.4203949 214.51756287 C-256.3521979 215.61340013 -255.28613477 216.71132062 -254.22197914 217.81108284 C-252.53323244 219.55326029 -250.83572231 221.28641344 -249.13505554 223.01695251 C-244.30087066 227.93648029 -239.47190222 232.86070962 -234.67602539 237.81762695 C-231.73862483 240.8523447 -228.78182095 243.86694245 -225.81160545 246.86953545 C-224.68675382 248.01412227 -223.56923781 249.16596853 -222.45949745 250.32521248 C-215.83244301 257.71163408 -215.83244301 257.71163408 -206.92260742 261.28686523 C-201.85984781 260.91661923 -199.75169926 259.69129584 -196.1875 256.25 C-194.44058316 252.9400523 -194.56087936 250.7011597 -195 247 C-197.48864141 242.05847967 -200.18246696 238.44760086 -204.13574219 234.52368164 C-204.63375839 234.02522736 -205.1317746 233.52677307 -205.6448822 233.01321411 C-207.27186251 231.38830254 -208.90916164 229.77424327 -210.546875 228.16015625 C-211.68524675 227.02738727 -212.82295238 225.89394852 -213.96002197 224.75987244 C-216.93885235 221.79243714 -219.92658383 218.83412656 -222.9163208 215.87768555 C-225.9718239 212.85299886 -229.01873786 209.81968653 -232.06640625 206.78710938 C-238.03594273 200.84964277 -244.01491938 194.9217973 -250 189 C-244.26113563 182.15138543 -238.08929693 175.79862902 -231.80419922 169.45410156 C-230.50912737 168.14231277 -229.21946639 166.82516172 -227.93505859 165.50292969 C-226.07015421 163.583579 -224.1896159 161.68091401 -222.3046875 159.78125 C-221.73168915 159.18558228 -221.1586908 158.58991455 -220.56832886 157.97619629 C-218.92919922 156.34570312 -218.92919922 156.34570312 -216 154 C-211.81457086 154.11024778 -209.60189182 157.04360977 -206.80419922 159.87109375 C-206.29964203 160.37681915 -205.79508484 160.88254456 -205.27523804 161.40359497 C-203.61131412 163.07469916 -201.95815949 164.75605904 -200.3046875 166.4375 C-199.15007178 167.60025228 -197.99471655 168.76227064 -196.83865356 169.92358398 C-193.79816171 172.98119253 -190.76635008 176.04725905 -187.73669434 179.11560059 C-182.88229724 184.02920153 -178.01514891 188.93016493 -173.14746475 193.83059692 C-171.44630228 195.54574859 -169.74899439 197.26464364 -168.05221558 198.98413086 C-167.01389652 200.03247077 -165.97549949 201.08073347 -164.93701172 202.12890625 C-164.02974335 203.04744385 -163.12247498 203.96598145 -162.18771362 204.91235352 C-158.6648288 208.27409979 -156.0525275 208.40842379 -151.328125 208.33984375 C-147.2055124 207.73805298 -145.69745249 206.16950667 -143 203 C-141.49441505 198.21755369 -141.97303233 195.29605009 -144.02022743 190.77555656 C-145.61987156 187.87666071 -147.77094559 185.7522597 -150.11401367 183.43188477 C-150.62163742 182.92367691 -151.12926117 182.41546906 -151.65226746 181.89186096 C-153.31485534 180.23203631 -154.99110463 178.58679588 -156.66796875 176.94140625 C-157.83040724 175.7864364 -158.99195959 174.63057404 -160.15266418 173.47386169 C-163.19673987 170.44499314 -166.25263771 167.42833483 -169.31121826 164.41412354 C-172.43546047 161.33094029 -175.54828422 158.23627534 -178.66210938 155.14257812 C-184.76366812 149.08380335 -190.87777349 143.0378895 -197 137 C-195.65427113 134.00056095 -194.16462899 131.91923821 -191.83544922 129.60839844 C-190.87467972 128.64785553 -190.87467972 128.64785553 -189.89450073 127.66790771 C-189.20486237 126.98859192 -188.515224 126.30927612 -187.8046875 125.609375 C-187.09724396 124.90476135 -186.38980042 124.20014771 -185.66091919 123.47418213 C-183.40360138 121.2280461 -181.13942367 118.98896991 -178.875 116.75 C-177.34199047 115.22702283 -175.80943285 113.70359061 -174.27734375 112.1796875 C-170.52345427 108.44783185 -166.76391086 104.72174649 -163 101 C-159.83603421 102.39935134 -157.71275388 104.04292404 -155.28100586 106.49194336 C-154.19600296 107.57715775 -154.19600296 107.57715775 -153.08908081 108.68429565 C-151.91383347 109.87504196 -151.91383347 109.87504196 -150.71484375 111.08984375 C-149.88187775 111.92573029 -149.04891174 112.76161682 -148.19070435 113.62283325 C-145.91040007 115.9127366 -143.63453663 118.20695135 -141.36024857 120.50282669 C-138.97733912 122.90570845 -136.58794566 125.30212189 -134.19897461 127.69897461 C-127.6103629 134.31166155 -121.03181417 140.93433031 -114.45332336 147.55708313 C-108.42316675 153.62760551 -102.39090864 159.69599924 -96.35050678 165.75632954 C-93.97306677 168.14209765 -91.59784104 170.52998963 -89.22750854 172.92282104 C-86.58448326 175.58970966 -83.93548818 178.25053177 -81.28515625 180.91015625 C-80.10990891 182.10090256 -80.10990891 182.10090256 -78.91091919 183.31570435 C-77.82591629 184.40091873 -77.82591629 184.40091873 -76.71899414 185.50805664 C-76.09368301 186.13780899 -75.46837189 186.76756134 -74.82411194 187.41639709 C-72.26303714 189.63979436 -70.17601116 190.99388556 -66.74609375 191.01171875 C-65.60333984 190.85123047 -65.60333984 190.85123047 -64.4375 190.6875 C-63.67308594 190.58824219 -62.90867187 190.48898438 -62.12109375 190.38671875 C-59.82240377 190.0191013 -59.82240377 190.0191013 -57 189 C-54.72266623 185.04463082 -54.04889316 180.45730579 -55 176 C-58.2868135 170.33150801 -62.71625935 166.01451456 -67.34863281 161.42431641 C-68.60771957 160.16479156 -68.60771957 160.16479156 -69.89224243 158.87982178 C-72.18172938 156.59148494 -74.47557575 154.30763166 -76.7714777 152.02573442 C-79.17471415 149.63504652 -81.57224397 147.23864925 -83.97039795 144.84286499 C-88.50658824 140.31287739 -93.04785009 135.78800989 -97.59097934 131.26498258 C-102.76543267 126.11292605 -107.93417136 120.95515249 -113.10244989 115.79690289 C-123.72864283 105.1915845 -134.36195197 94.59342767 -145 84 C-138.72848337 76.60136619 -138.72848337 76.60136619 -135.65673828 73.54321289 C-135.07658966 72.9631398 -134.49644104 72.38306671 -133.89871216 71.78541565 C-133.29534027 71.18720505 -132.69196838 70.58899445 -132.0703125 69.97265625 C-131.43511688 69.33887558 -130.79992126 68.70509491 -130.14547729 68.05210876 C-128.14101284 66.05318594 -126.13307786 64.05779216 -124.125 62.0625 C-122.75497611 60.69749867 -121.38518226 59.3322664 -120.015625 57.96679688 C-116.67973457 54.64185789 -113.34072964 51.32007647 -110 48 C-104.13394062 52.82874037 -98.77720352 58.10339366 -93.43161583 63.49321938 C-91.8576989 65.080039 -90.28055708 66.6635912 -88.70259094 68.24638367 C-85.36138604 71.59893389 -82.02416842 74.95543557 -78.6875 78.3125 C-74.80146106 82.2221572 -70.91379574 86.13016871 -67.02192116 90.03401756 C-65.46769216 91.59473077 -63.91650102 93.158421 -62.36540222 94.72224426 C-61.41782094 95.67345598 -60.47010015 96.62452875 -59.5222168 97.57543945 C-58.69505661 98.40783646 -57.86789642 99.24023346 -57.01567078 100.09785461 C-53.59620263 103.32473355 -50.88545249 103.40944278 -46.328125 103.3359375 C-42.1602958 102.73453933 -40.70214312 101.24257175 -38 98 C-36.53556863 93.97074532 -36.5005683 91.16463466 -38.19819641 87.2059021 C-40.15421595 83.72560758 -42.28363119 81.35523296 -45.11401367 78.54541016 C-45.62163742 78.03734833 -46.12926117 77.5292865 -46.65226746 77.00582886 C-48.31715051 75.34302109 -49.99237383 73.69106942 -51.66796875 72.0390625 C-52.83018885 70.88244283 -53.99174451 69.72515515 -55.15266418 68.56723022 C-58.19892081 65.53238712 -61.25408052 62.50666459 -64.31121826 59.48278809 C-67.43363692 56.39114568 -70.54750178 53.29091409 -73.66210938 50.19140625 C-79.76642648 44.11919164 -85.88018121 38.0565909 -92 32 C-90.08973184 27.85133547 -87.28506604 24.94421538 -84.1015625 21.73046875 C-83.21626358 20.83162712 -83.21626358 20.83162712 -82.31307983 19.91462708 C-81.05993626 18.64698825 -79.80397237 17.38213219 -78.54541016 16.11987305 C-76.65394863 14.21662896 -74.78198969 12.29557065 -72.91015625 10.37304688 C-52.58695899 -10.22429302 -25.17913389 -18.48180621 0 0 Z M15 221 C6.13203108 232.78581676 2.66256835 246.53884939 4.625 261.125 C6.50486129 270.62456571 10.7290437 278.68388432 17 286 C17.47695313 286.59425781 17.95390625 287.18851562 18.4453125 287.80078125 C25.19107789 295.44485208 36.95877538 301.14632808 47.04443359 302.21704102 C62.35820301 303.0620224 75.44349401 300.0695942 87.41015625 289.96484375 C98.24693361 279.70699272 103.20922473 268.08723013 103.98828125 253.28515625 C104.03927074 238.99110158 98.35390219 226.42503832 88.453125 216.1875 C77.56394703 206.47740499 65.63336768 202.610836 51.21484375 202.7890625 C36.81577395 203.73383743 24.68981258 210.47573959 15 221 Z " fill="#DBDFDF" transform="translate(571,10)"/>
<path d="M0 0 C5.05889248 3.87372895 8.20842477 8.73499945 10.05078125 14.81640625 C10.94183801 21.77290204 11.18832274 28.91081673 7.4453125 35.07421875 C2.43904862 41.32854282 -3.57813022 46.13835394 -11.703125 47.1640625 C-19.18232618 47.53658976 -24.83682089 46.20804271 -30.94921875 41.81640625 C-36.04521784 37.12695254 -39.50562584 32.64064407 -40.3203125 25.6171875 C-40.4931558 16.53783074 -39.37187868 9.98532145 -33.375 2.9765625 C-24.09406621 -5.87169373 -10.75885548 -6.53293229 0 0 Z " fill="#DBDFDE" transform="translate(639.94921875,241.18359375)"/>
</svg>
